<svg width="20" height="20" viewBox="0 0 20 20" fill="none" xmlns="http://www.w3.org/2000/svg">
<path fill-rule="evenodd" clip-rule="evenodd" d="M0 1.05263C0 0.471284 0.416904 0 0.931172 0C2.44415 0 3.78738 1.09443 4.26583 2.71699L4.39584 3.15789H15.8579C16.4686 3.15787 16.988 3.15785 17.4084 3.20031C17.8459 3.24448 18.2833 3.34223 18.683 3.61667C19.2442 4.00193 19.6674 4.59829 19.8784 5.30111C20.0287 5.80177 20.0181 6.30564 19.9614 6.79806C19.9069 7.27111 19.7942 7.84431 19.6617 8.51832L19.3766 9.96884C19.2417 10.6545 19.1295 11.2254 19.0058 11.6887C18.8763 12.1736 18.7171 12.6108 18.4587 13.0105C18.0701 13.6116 17.5476 14.0855 16.9443 14.3838C16.543 14.5823 16.1309 14.6632 15.6841 14.7008C15.2572 14.7368 14.74 14.7368 14.1185 14.7368H9.16078C8.53931 14.7368 8.02216 14.7368 7.59516 14.7008C7.1484 14.6632 6.73629 14.5823 6.33502 14.3838C5.7317 14.0855 5.20914 13.6116 4.8206 13.0105C4.56219 12.6108 4.40299 12.1736 4.27351 11.6887C4.14976 11.2254 4.03758 10.6546 3.90277 9.96884L2.82611 4.49188L2.49905 3.38273C2.2741 2.61984 1.64254 2.10526 0.931172 2.10526C0.416904 2.10526 0 1.63398 0 1.05263ZM4.88551 5.26316L5.71338 9.47453C5.85746 10.2075 5.9551 10.7011 6.05638 11.0803C6.15419 11.4465 6.23791 11.6348 6.32426 11.7684C6.51853 12.0689 6.77981 12.3059 7.08147 12.4551C7.21554 12.5214 7.39631 12.5729 7.73381 12.6014C8.08328 12.6309 8.53065 12.6316 9.19486 12.6316H14.0844C14.7486 12.6316 15.196 12.6309 15.5454 12.6014C15.883 12.5729 16.0637 12.5214 16.1978 12.4551C16.4995 12.3059 16.7608 12.0689 16.9551 11.7684C17.0414 11.6348 17.1251 11.4465 17.223 11.0803C17.3242 10.7011 17.4219 10.2075 17.5659 9.47453L17.8347 8.10694C17.9786 7.37527 18.0722 6.89458 18.1146 6.52604C18.1562 6.16632 18.132 6.03486 18.1147 5.97756C18.0444 5.74329 17.9034 5.54451 17.7164 5.41608C17.6706 5.38467 17.5624 5.32949 17.2427 5.29721C16.9152 5.26415 16.4798 5.26316 15.8168 5.26316H4.88551Z" fill="#F2E8CF"/>
<path d="M9.31172 17.8947C9.31172 19.0574 8.47795 20 7.44938 20C6.42084 20 5.58704 19.0574 5.58704 17.8947C5.58704 16.732 6.42084 15.7894 7.44938 15.7894C8.47795 15.7894 9.31172 16.732 9.31172 17.8947Z" fill="#F2E8CF"/>
<path d="M15.83 20C16.8586 20 17.6923 19.0574 17.6923 17.8947C17.6923 16.732 16.8586 15.7894 15.83 15.7894C14.8014 15.7894 13.9677 16.732 13.9677 17.8947C13.9677 19.0574 14.8014 20 15.83 20Z" fill="#F2E8CF"/>
</svg>
