<svg width="30" height="31" viewBox="0 0 30 31" fill="none" xmlns="http://www.w3.org/2000/svg">
<path fill-rule="evenodd" clip-rule="evenodd" d="M0 2.29742C0 1.4254 0.625356 0.718475 1.39676 0.718475C3.66622 0.718475 5.68108 2.36012 6.39874 4.79396L6.59376 5.45532H23.7868C24.7029 5.45529 25.482 5.45525 26.1125 5.51893C26.7689 5.5852 27.4249 5.73182 28.0245 6.14349C28.8664 6.72136 29.5011 7.61592 29.8176 8.67013C30.043 9.42113 30.0272 10.1769 29.9422 10.9156C29.8603 11.6251 29.6913 12.4849 29.4925 13.4959L29.0649 15.6717C28.8626 16.7003 28.6943 17.5565 28.5087 18.2516C28.3145 18.9788 28.0757 19.6347 27.6881 20.2343C27.1052 21.1358 26.3213 21.8467 25.4164 22.2942C24.8145 22.5919 24.1963 22.7132 23.5261 22.7697C22.8857 22.8237 22.11 22.8237 21.1778 22.8237H13.7412C12.809 22.8237 12.0332 22.8237 11.3927 22.7697C10.7226 22.7132 10.1044 22.5919 9.50253 22.2942C8.59755 21.8467 7.81371 21.1358 7.2309 20.2343C6.84329 19.6347 6.60449 18.9788 6.41027 18.2516C6.22464 17.5565 6.05637 16.7004 5.85416 15.6717L4.23916 7.4563L3.74858 5.79256C3.41115 4.64824 2.46381 3.87637 1.39676 3.87637C0.625356 3.87637 0 3.16944 0 2.29742ZM7.32826 8.61321L8.57007 14.9303C8.78619 16.0297 8.93266 16.7701 9.08457 17.3389C9.23128 17.8883 9.35687 18.1707 9.48639 18.3711C9.77779 18.8219 10.1697 19.1773 10.6222 19.4011C10.8233 19.5005 11.0945 19.5779 11.6007 19.6205C12.1249 19.6649 12.796 19.6658 13.7923 19.6658H21.1267C22.123 19.6658 22.794 19.6649 23.3182 19.6205C23.8245 19.5779 24.0956 19.5005 24.2967 19.4011C24.7493 19.1773 25.1412 18.8219 25.4326 18.3711C25.5621 18.1707 25.6876 17.8883 25.8344 17.3389C25.9863 16.7701 26.1328 16.0297 26.3489 14.9303L26.7521 12.8789C26.9679 11.7814 27.1083 11.0603 27.172 10.5075C27.2343 9.96795 27.1979 9.77077 27.1721 9.68481C27.0667 9.33342 26.855 9.03523 26.5746 8.8426C26.5059 8.79548 26.3436 8.71272 25.864 8.66429C25.3728 8.6147 24.7197 8.61321 23.7252 8.61321H7.32826Z" fill="#F2E8CF"/>
<path d="M13.9674 27.5606C13.9674 29.3047 12.7167 30.7185 11.1739 30.7185C9.63107 30.7185 8.38037 29.3047 8.38037 27.5606C8.38037 25.8165 9.63107 24.4027 11.1739 24.4027C12.7167 24.4027 13.9674 25.8165 13.9674 27.5606Z" fill="#F2E8CF"/>
<path d="M23.7452 30.7185C25.288 30.7185 26.5387 29.3047 26.5387 27.5606C26.5387 25.8165 25.288 24.4027 23.7452 24.4027C22.2023 24.4027 20.9517 25.8165 20.9517 27.5606C20.9517 29.3047 22.2023 30.7185 23.7452 30.7185Z" fill="#F2E8CF"/>
</svg>
