<svg aria-hidden="true" style="position: absolute; width: 0; height: 0; overflow: hidden;" version="1.1" xmlns="http://www.w3.org/2000/svg" xmlns:xlink="http://www.w3.org/1999/xlink">
<defs>
<symbol id="icon-facebook" viewBox="0 0 32 32">
<path d="M18.773 5.556c0.229 0 0.457 0 0.914 0v3.429c-0.229 0-0.686 0-1.143 0s-0.914 0-1.143 0.229c-0.229 0.229-0.229 0.457-0.229 0.99 0 0.457 0 0.762 0 1.219h2.514v2.895h-2.514v12.571h-3.886v-12.648h-2.057v-2.895h2.057v-0.99c0-1.676 0.229-2.895 0.686-3.429 0.686-0.99 2.057-1.448 4.114-1.448 0.229 0.076 0.457 0.076 0.686 0.076z"></path>
</symbol>
<symbol id="icon-instagram" viewBox="0 0 32 32">
<path d="M27.533 11.381c-0.015-1.023-0.204-2.038-0.567-2.995-0.635-1.634-1.928-2.926-3.565-3.559-0.946-0.356-1.947-0.546-2.96-0.568-1.302-0.058-1.715-0.074-5.022-0.074s-3.73 0-5.023 0.074c-1.011 0.022-2.012 0.212-2.958 0.568-1.637 0.633-2.931 1.925-3.565 3.559-0.356 0.945-0.548 1.944-0.567 2.953-0.058 1.302-0.076 1.714-0.076 5.015s0 3.722 0.076 5.015c0.020 1.011 0.211 2.009 0.567 2.956 0.635 1.633 1.928 2.925 3.566 3.558 0.942 0.368 1.943 0.576 2.958 0.608 1.304 0.058 1.717 0.076 5.023 0.076s3.73 0 5.023-0.076c1.011-0.020 2.012-0.211 2.96-0.566 1.637-0.634 2.93-1.926 3.565-3.559 0.356-0.946 0.547-1.944 0.567-2.956 0.058-1.3 0.076-1.712 0.076-5.015-0.003-3.301-0.003-3.72-0.079-5.013zM15.411 22.595c-3.458 0-6.259-2.797-6.259-6.249s2.801-6.249 6.259-6.249c3.455 0 6.259 2.797 6.259 6.249s-2.804 6.249-6.259 6.249zM21.919 11.324c-0.808 0-1.459-0.652-1.459-1.457s0.651-1.457 1.459-1.457c0.806 0 1.458 0.652 1.458 1.457s-0.653 1.457-1.458 1.457z"></path>
<path d="M15.413 20.162c2.106 0 3.813-1.707 3.813-3.813s-1.707-3.813-3.813-3.813c-2.106 0-3.813 1.707-3.813 3.813s1.707 3.813 3.813 3.813z"></path>
</symbol>
<symbol id="icon-telegram" viewBox="0 0 36 32">
<path d="M31.303 1.505c0.426-0.184 0.893-0.247 1.351-0.183s0.892 0.252 1.255 0.545 0.643 0.681 0.81 1.122c0.167 0.442 0.216 0.921 0.141 1.388l-3.912 24.302c-0.379 2.344-2.891 3.688-4.99 2.521-1.756-0.977-4.364-2.482-6.71-4.053-1.173-0.786-4.766-3.303-4.324-5.095 0.379-1.532 6.417-7.287 9.866-10.709 1.354-1.344 0.737-2.12-0.862-0.883-3.971 3.070-10.346 7.739-12.454 9.054-1.859 1.159-2.829 1.357-3.988 1.159-2.115-0.36-4.076-0.919-5.677-1.599-2.163-0.919-2.058-3.964-0.002-4.851l29.496-12.719z"></path>
</symbol>
</defs>
</svg>
