<svg width="21" height="21" viewBox="0 0 21 21" fill="none" xmlns="http://www.w3.org/2000/svg">
<g opacity="0.8">
<path d="M12.3199 3.64619C12.4699 3.64619 12.6199 3.64619 12.9199 3.64619V5.89619C12.7699 5.89619 12.4699 5.89619 12.1699 5.89619C11.8699 5.89619 11.5699 5.89619 11.4199 6.04619C11.2699 6.19619 11.2699 6.34619 11.2699 6.69619C11.2699 6.99619 11.2699 7.19619 11.2699 7.49619H12.9199V9.39619H11.2699V17.6462H8.71988V9.34619H7.36987V7.44619H8.71988V6.79619C8.71988 5.69619 8.86988 4.89619 9.16988 4.54619C9.61988 3.89619 10.5199 3.59619 11.8699 3.59619C12.0199 3.64619 12.1699 3.64619 12.3199 3.64619Z" fill="#F2E8CF"/>
</g>
</svg>
