<svg width="21" height="21" viewBox="0 0 21 21" fill="none" xmlns="http://www.w3.org/2000/svg">
<g opacity="0.8">
<path d="M18.0683 7.46857C18.0586 6.7971 17.9342 6.13095 17.6961 5.50294C17.2794 4.43054 16.4308 3.58255 15.3567 3.16743C14.7356 2.93414 14.079 2.80907 13.4144 2.79488C12.5597 2.75674 12.2887 2.74609 10.119 2.74609C7.94928 2.74609 7.67118 2.74609 6.82267 2.79488C6.15897 2.80907 5.50237 2.93414 4.88131 3.16743C3.80712 3.58255 2.95772 4.43054 2.54191 5.50294C2.30823 6.12297 2.18207 6.77847 2.16963 7.44107C2.13142 8.29527 2.11987 8.56581 2.11987 10.7319C2.11987 12.898 2.11987 13.1747 2.16963 14.0227C2.18296 14.6862 2.30823 15.3408 2.54191 15.9626C2.95861 17.0342 3.80712 17.8821 4.8822 18.2973C5.50059 18.5385 6.15719 18.6751 6.82356 18.6964C7.67918 18.7346 7.95017 18.7461 10.1199 18.7461C12.2896 18.7461 12.5677 18.7461 13.4162 18.6964C14.0799 18.6831 14.7365 18.558 15.3584 18.3248C16.4326 17.9088 17.2811 17.0608 17.6978 15.9892C17.9315 15.3683 18.0568 14.7137 18.0701 14.0493C18.1083 13.196 18.1199 12.9255 18.1199 10.7585C18.1181 8.59242 18.1181 8.31744 18.0683 7.46857ZM10.1137 14.8281C7.84444 14.8281 6.00615 12.9929 6.00615 10.7275C6.00615 8.46203 7.84444 6.62679 10.1137 6.62679C12.3811 6.62679 14.2212 8.46203 14.2212 10.7275C14.2212 12.9929 12.3811 14.8281 10.1137 14.8281ZM14.3846 7.43131C13.8542 7.43131 13.4268 7.00377 13.4268 6.47511C13.4268 5.94645 13.8542 5.51891 14.3846 5.51891C14.9133 5.51891 15.3416 5.94645 15.3416 6.47511C15.3416 7.00377 14.9133 7.43131 14.3846 7.43131Z" fill="#F2E8CF"/>
<path d="M10.1149 13.2311C11.497 13.2311 12.6174 12.1107 12.6174 10.7286C12.6174 9.34648 11.497 8.22607 10.1149 8.22607C8.73283 8.22607 7.61243 9.34648 7.61243 10.7286C7.61243 12.1107 8.73283 13.2311 10.1149 13.2311Z" fill="#F2E8CF"/>
</g>
</svg>
