<svg width="19" height="17" viewBox="0 0 19 17" fill="none" xmlns="http://www.w3.org/2000/svg">
<path fill-rule="evenodd" clip-rule="evenodd" d="M16.6297 0.799599C16.8561 0.70199 17.104 0.668325 17.3474 0.702108C17.5909 0.735891 17.8211 0.835888 18.014 0.991689C18.2069 1.14749 18.3555 1.3534 18.4444 1.58799C18.5332 1.82258 18.5591 2.07727 18.5192 2.32555L16.4409 15.2361C16.2393 16.4814 14.9051 17.1956 13.7899 16.5753C12.8571 16.0563 11.4715 15.2567 10.2253 14.4224C9.60217 14.0048 7.69341 12.6675 7.928 11.7159C8.1296 10.9022 11.3368 7.84468 13.1695 6.02687C13.8889 5.31269 13.5608 4.90071 12.7114 5.55763C10.6019 7.18869 7.21508 9.66907 6.0953 10.3673C5.10747 10.9829 4.59248 11.088 3.97669 10.9829C2.85325 10.7915 1.81135 10.4949 0.960981 10.1336C-0.188124 9.6456 -0.132226 8.02768 0.960064 7.55657L16.6297 0.799599Z" fill="#CCCDAD"/>
</svg>
